<!DOCTYPE svg PUBLIC "-//W3C//DTD SVG 1.1//EN" "http://www.w3.org/Graphics/SVG/1.1/DTD/svg11.dtd">
<!-- Uploaded to: SVG Repo, www.svgrepo.com, Transformed by: SVG Repo Mixer Tools -->
<svg width="100px" height="100px" viewBox="-36.1 -36.1 433.20 433.20" version="1.1" xmlns="http://www.w3.org/2000/svg" xmlns:xlink="http://www.w3.org/1999/xlink" preserveAspectRatio="xMidYMid" fill="#000000" stroke="#000000" stroke-width="0.00361">
  <g id="SVGRepo_bgCarrier" stroke-width="0">
    <path transform="translate(-36.1, -36.1), scale(13.5375)" d="M16,27.61580523724357C18.430078002861816,28.21636631815483,21.013919689309237,29.65953161837024,23.307764325911798,28.657419102218565C25.58548912474767,27.662348863877064,26.33129234647505,24.8304880710983,27.452938326758233,22.61235702596605C28.522042214894164,20.498131533759324,29.653280406387523,18.36852476176431,29.70826229825616,16C29.763861050677367,13.604901953038334,29.257494540094314,11.081322213371584,27.76410133819499,9.207992925619088C26.327409661090638,7.4057906705352465,23.69870082004221,7.270126088136211,21.757916358609997,6.026996321155513C19.6965131671828,4.706606695240496,18.44797104404652,1.656938279486368,16,1.6727385756870117C13.548277465410443,1.6885630856796936,12.357808341589278,4.791855456667754,10.284837792937958,6.101048683871056C8.31927956049435,7.342405213158488,5.316221313608768,7.147355941423632,4.148557676125655,9.157566584025815C2.981243209457962,11.167176105837122,4.0734355761162835,13.722231063048579,4.534870473047098,15.999999999999998C4.925466086257824,17.92808684518344,5.581993497527059,19.744939512791813,6.630567141586743,21.409444582959008C7.650001434059835,23.027693866771052,8.922747771803099,24.440212028554882,10.517242915307477,25.496413836245654C12.179061916678428,26.59721131465331,14.064881059193487,27.137566628682865,16,27.61580523724357" fill="#7ed0ec" strokewidth="0" />
  </g>
  <g id="SVGRepo_tracerCarrier" stroke-linecap="round" stroke-linejoin="round" />
  <g id="SVGRepo_iconCarrier">
    <g>
      <path d="M127.843868,360.087912 L23.6617143,331.166242 L0.445186813,70.7657143 L255.554813,70.7657143 L232.31367,331.125451 L127.843868,360.087912 L127.843868,360.087912 Z" fill="#264DE4"></path>
      <path d="M212.416703,314.546637 L232.277802,92.0573187 L128,92.0573187 L128,337.950242 L212.416703,314.546637 L212.416703,314.546637 Z" fill="#2965F1"></path>
      <path d="M53.6685714,188.636132 L56.530989,220.572835 L128,220.572835 L128,188.636132 L53.6685714,188.636132 L53.6685714,188.636132 Z" fill="#EBEBEB"></path>
      <path d="M47.917011,123.994725 L50.8202198,155.932132 L128,155.932132 L128,123.994725 L47.917011,123.994725 L47.917011,123.994725 Z" fill="#EBEBEB"></path>
      <path d="M128,271.580132 L127.860044,271.617407 L92.2915165,262.013187 L90.0177582,236.54189 L57.957978,236.54189 L62.4323516,286.687648 L127.853011,304.848879 L128,304.808088 L128,271.580132 L128,271.580132 Z" fill="#EBEBEB"></path>
      <path d="M60.4835165,0 L99.1648352,0 L99.1648352,16.1758242 L76.6593407,16.1758242 L76.6593407,32.3516484 L99.1648352,32.3516484 L99.1648352,48.5274725 L60.4835165,48.5274725 L60.4835165,0 L60.4835165,0 Z" fill="#ffffff"></path>
      <path d="M106.901099,0 L145.582418,0 L145.582418,14.0659341 L123.076923,14.0659341 L123.076923,16.8791209 L145.582418,16.8791209 L145.582418,49.2307692 L106.901099,49.2307692 L106.901099,34.4615385 L129.406593,34.4615385 L129.406593,31.6483516 L106.901099,31.6483516 L106.901099,0 L106.901099,0 Z" fill="#ffffff"></path>
      <path d="M153.318681,0 L192,0 L192,14.0659341 L169.494505,14.0659341 L169.494505,16.8791209 L192,16.8791209 L192,49.2307692 L153.318681,49.2307692 L153.318681,34.4615385 L175.824176,34.4615385 L175.824176,31.6483516 L153.318681,31.6483516 L153.318681,0 L153.318681,0 Z" fill="#ffffff"></path>
      <path d="M202.126769,188.636132 L207.892396,123.994725 L127.889582,123.994725 L127.889582,155.932132 L172.892132,155.932132 L169.98611,188.636132 L127.889582,188.636132 L127.889582,220.572835 L167.216527,220.572835 L163.509451,261.992791 L127.889582,271.606857 L127.889582,304.833407 L193.362286,286.687648 L193.842637,281.291956 L201.347516,197.212132 L202.126769,188.636132 L202.126769,188.636132 Z" fill="#FFFFFF"></path>
    </g>
  </g>
</svg>