<!DOCTYPE svg PUBLIC "-//W3C//DTD SVG 1.1//EN" "http://www.w3.org/Graphics/SVG/1.1/DTD/svg11.dtd">
<!-- Uploaded to: SVG Repo, www.svgrepo.com, Transformed by: SVG Repo Mixer Tools -->
<svg width="100px" height="100px" viewBox="-2.4 -2.4 28.80 28.80" xmlns="http://www.w3.org/2000/svg" fill="#000000">
<g id="SVGRepo_bgCarrier" stroke-width="0">
<path transform="translate(-2.4, -2.4), scale(0.8999999999999999)" d="M16,29.90525528575693C20.321778292808723,29.783337588917686,24.49222733691646,28.297695264778046,27.323356835960354,25.03007574949804C30.307359873378587,21.586013384277535,32.13650989556418,16.98978212416225,31.017581302778694,12.572335066517237C29.92363251781284,8.253506436593936,25.964979477537838,5.574513426956798,21.92148883894519,3.7039017263660323C17.976327468294066,1.878779405017638,13.39233299720137,0.5782283638787207,9.571377786843042,2.6508284238993642C5.8937431659827855,4.645687121867234,5.22166244783164,9.249273082192484,4.212766480567577,13.309640868076707C3.1651256708530804,17.52593980569456,1.330406817883731,22.150371642301288,3.8461531120087873,25.69236946572421C6.458389730041301,29.370219031455054,11.490656869497663,30.03246420104152,16,29.90525528575693" fill="#7e8bec" strokewidth="0"/>
</g>
<g id="SVGRepo_tracerCarrier" stroke-linecap="round" stroke-linejoin="round"/>
<g id="SVGRepo_iconCarrier">
<path d="M4.6 15c-.9-2.6-.6-4.6-.5-5.4 2.4-1.5 5.3-2 8-1.3.7-.3 1.5-.5 2.3-.6-.1-.3-.2-.5-.3-.8h2l1.2-3.2-.9-.4-1 2.6h-1.8C13 4.8 12.1 4 11.1 3.4l2.1-2.1-.7-.7L10.1 3c-.7 0-1.5 0-2.3.1L5.4.7l-.7.7 2.1 2.1C5.7 4.1 4.9 4.9 4.3 6H2.5l-1-2.6-.9.4L1.8 7h2C3.3 8.3 3 9.6 3 11H1v1h2c0 1 .2 2 .5 3H1.8L.6 18.3l.9.3 1-2.7h1.4c.4.8 2.1 4.5 5.8 3.9-.3-.2-.5-.5-.7-.8-2.9 0-4.4-3.5-4.4-4zM9 3.9c2 0 3.7 1.6 4.4 3.8-2.9-1-6.2-.8-9 .6.7-2.6 2.5-4.4 4.6-4.4zm14.8 19.2l-4.3-4.3c2.1-2.5 1.8-6.3-.7-8.4s-6.3-1.8-8.4.7-1.8 6.3.7 8.4c2.2 1.9 5.4 1.9 7.7 0l4.3 4.3c.2.2.5.2.7 0 .2-.2.2-.5 0-.7zm-8.8-3c-2.8 0-5.1-2.3-5.1-5.1s2.3-5.1 5.1-5.1 5.1 2.3 5.1 5.1-2.3 5.1-5.1 5.1z"/>
<path fill="none" d="M0 0h24v24H0z"/>
</g>
</svg>