<!DOCTYPE svg PUBLIC "-//W3C//DTD SVG 1.1//EN" "http://www.w3.org/Graphics/SVG/1.1/DTD/svg11.dtd">
<!-- Uploaded to: SVG Repo, www.svgrepo.com, Transformed by: SVG Repo Mixer Tools -->
<svg width="100px" height="100px" viewBox="-36.1 -36.1 433.20 433.20" version="1.1" xmlns="http://www.w3.org/2000/svg" xmlns:xlink="http://www.w3.org/1999/xlink" preserveAspectRatio="xMidYMid" fill="#000000" stroke="#000000">
<g id="SVGRepo_bgCarrier" stroke-width="0">
<path transform="translate(-36.1, -36.1), scale(13.5375)" d="M16,26.90558179219564C17.823202859829667,26.56671240891201,19.44129736481604,25.644504411538733,20.929357953369617,24.537898423929917C22.29774924379074,23.520285292435272,22.995141171860727,21.915017770315288,24.25550763387205,20.76631955471304C26.184252486284056,19.008461156305582,30.38570096676288,18.60812179040626,30.29724995791912,16C30.20715604790531,13.343434597733225,25.409537854775735,13.630632836101729,23.938429176925496,11.416745777759289C22.61547868188715,9.425823540747453,24.549905062293117,5.933751567007672,22.647000190284523,4.487057952507223C20.836442755625207,3.1105719715537243,18.27135509284636,5.264133110371043,16,5.381512504484919C13.877972711764421,5.49117491621908,11.463202922577361,3.913506446551672,9.738153138922325,5.154163087397764C7.972332410814165,6.424142211263542,8.990223973329467,9.444456677127842,7.810202984966672,11.271618488762108C6.533886278096791,13.247886003782337,3.656683734589265,13.836051693473161,2.733674875564045,15.999999999999998C1.6928582657853355,18.440142711646605,0.9739731056390282,21.619616566369572,2.458630703301653,23.81811320864491C3.963131971436541,26.045994567620163,7.264499743900142,25.992952373255303,9.885539381040463,26.590556452916953C11.909819398139028,27.05209773579336,13.958729511757689,27.284982289368166,16,26.90558179219564" fill="#7e8bec" strokewidth="0"/>
</g>
<g id="SVGRepo_tracerCarrier" stroke-linecap="round" stroke-linejoin="round"/>
<g id="SVGRepo_iconCarrier"> <g> <path d="M255.554813,70.7657143 L232.31367,331.125451 L127.843868,360.087912 L23.6617143,331.166242 L0.445186813,70.7657143 L255.554813,70.7657143 L255.554813,70.7657143 Z" fill="#E44D26"> </path> <path d="M128,337.950242 L212.416703,314.546637 L232.277802,92.0573187 L128,92.0573187 L128,337.950242 L128,337.950242 Z" fill="#F16529"> </path> <path d="M82.8202198,155.932132 L128,155.932132 L128,123.994725 L47.917011,123.994725 L48.6814945,132.562989 L56.530989,220.572835 L128,220.572835 L128,188.636132 L85.7389011,188.636132 L82.8202198,155.932132 L82.8202198,155.932132 Z" fill="#EBEBEB"> </path> <path d="M90.0177582,236.54189 L57.957978,236.54189 L62.4323516,286.687648 L127.853011,304.848879 L128,304.808088 L128,271.580132 L127.860044,271.617407 L92.2915165,262.013187 L90.0177582,236.54189 L90.0177582,236.54189 Z" fill="#EBEBEB"> </path> <path d="M24.1807473,0 L40.4107253,0 L40.4107253,16.0351648 L55.2573187,16.0351648 L55.2573187,0 L71.488,0 L71.488,48.5584176 L55.258022,48.5584176 L55.258022,32.2981978 L40.4114286,32.2981978 L40.4114286,48.5584176 L24.1814505,48.5584176 L24.1814505,0 L24.1807473,0 L24.1807473,0 Z" fill="#000000"> </path> <path d="M92.8309451,16.1026813 L78.5427692,16.1026813 L78.5427692,0 L123.356835,0 L123.356835,16.1026813 L109.06233,16.1026813 L109.06233,48.5584176 L92.8316484,48.5584176 L92.8316484,16.1026813 L92.8309451,16.1026813 L92.8309451,16.1026813 Z" fill="#000000"> </path> <path d="M130.469275,0 L147.392703,0 L157.802901,17.061978 L168.202549,0 L185.132308,0 L185.132308,48.5584176 L168.969143,48.5584176 L168.969143,24.4901978 L157.802901,41.7554286 L157.523692,41.7554286 L146.349714,24.4901978 L146.349714,48.5584176 L130.469275,48.5584176 L130.469275,0 L130.469275,0 Z" fill="#000000"> </path> <path d="M193.20967,0 L209.444571,0 L209.444571,32.5077802 L232.268659,32.5077802 L232.268659,48.5584176 L193.20967,48.5584176 L193.20967,0 L193.20967,0 Z" fill="#000000"> </path> <path d="M127.889582,220.572835 L167.216527,220.572835 L163.509451,261.992791 L127.889582,271.606857 L127.889582,304.833407 L193.362286,286.687648 L193.842637,281.291956 L201.347516,197.212132 L202.126769,188.636132 L127.889582,188.636132 L127.889582,220.572835 L127.889582,220.572835 Z" fill="#FFFFFF"> </path> <path d="M127.889582,155.854066 L127.889582,155.932132 L205.032791,155.932132 L205.673495,148.753582 L207.128615,132.562989 L207.892396,123.994725 L127.889582,123.994725 L127.889582,155.854066 L127.889582,155.854066 Z" fill="#FFFFFF"> </path> </g> </g>
</svg>